# xmcd
#
# Track frame offsets:
#	150
#	22612
#	58160
#	78800
#	122782
#	145840
#	191145
#	213307
#	235852
#	264142
#	290315
#
# Disc length: 4111 seconds
# Revision: 1
# Processed by: cddbd v1.5.2PL0 Copyright (c) Steve Scherf et al.
# Submitted via: dBpowerAMP V12.0
#
DISCID=90100d0b
DTITLE=Ronnie Earl and The Broadcasters - The Colour of Love
DYEAR=1997
DGENRE=Blues
TTITLE0=Hippology
TTITLE1=Bonnie's Theme
TTITLE2=Everyday Kinda Man
TTITLE3='Round Midnight
TTITLE4=Deep Pockets
TTITLE5=The Colour of Love
TTITLE6=I Liked That Thing You Did
TTITLE7=Anne's Dream
TTITLE8=Heart of Glass
TTITLE9=Mother Angel
TTITLE10=O' Yeah
EXTD=
EXTT0=
EXTT1=
EXTT2=
EXTT3=
EXTT4=
EXTT5=
EXTT6=
EXTT7=
EXTT8=
EXTT9=
EXTT10=
PLAYORDER=
